<mxfile host="Electron" agent="Mozilla/5.0 (Windows NT 10.0; Win64; x64) AppleWebKit/537.36 (KHTML, like Gecko) draw.io/24.7.8 Chrome/128.0.6613.36 Electron/32.0.1 Safari/537.36" version="24.7.8">
  <diagram name="Page-1" id="SlOQxHc1ZeIWnJ3YO5iF">
    <mxGraphModel dx="1687" dy="993" grid="1" gridSize="10" guides="1" tooltips="1" connect="1" arrows="1" fold="1" page="1" pageScale="1" pageWidth="827" pageHeight="1169" math="0" shadow="0">
      <root>
        <mxCell id="0" />
        <mxCell id="1" parent="0" />
        <mxCell id="9cqDlCr2pAgiw4tXtKMy-1" value="" style="rounded=0;whiteSpace=wrap;html=1;strokeColor=none;fillColor=#000000;" parent="1" vertex="1">
          <mxGeometry x="92.5" y="32" width="10" height="60" as="geometry" />
        </mxCell>
        <mxCell id="0iJL2fDYfF9RaZBV5AV_-18" style="edgeStyle=orthogonalEdgeStyle;rounded=0;orthogonalLoop=1;jettySize=auto;html=1;entryX=0;entryY=0.5;entryDx=0;entryDy=0;" edge="1" parent="1" source="9cqDlCr2pAgiw4tXtKMy-4" target="0iJL2fDYfF9RaZBV5AV_-17">
          <mxGeometry relative="1" as="geometry" />
        </mxCell>
        <mxCell id="0iJL2fDYfF9RaZBV5AV_-23" value="y" style="edgeLabel;html=1;align=center;verticalAlign=middle;resizable=0;points=[];" vertex="1" connectable="0" parent="0iJL2fDYfF9RaZBV5AV_-18">
          <mxGeometry x="-0.1299" y="1" relative="1" as="geometry">
            <mxPoint x="35" y="9" as="offset" />
          </mxGeometry>
        </mxCell>
        <mxCell id="0iJL2fDYfF9RaZBV5AV_-14" style="edgeStyle=orthogonalEdgeStyle;rounded=0;orthogonalLoop=1;jettySize=auto;html=1;entryX=0;entryY=0.5;entryDx=0;entryDy=0;" edge="1" parent="1" source="0iJL2fDYfF9RaZBV5AV_-1" target="9cqDlCr2pAgiw4tXtKMy-4">
          <mxGeometry relative="1" as="geometry" />
        </mxCell>
        <mxCell id="0iJL2fDYfF9RaZBV5AV_-1" value="" style="rounded=0;whiteSpace=wrap;html=1;strokeColor=none;fillColor=#000000;" vertex="1" parent="1">
          <mxGeometry x="197.5" y="335.5" width="10" height="60" as="geometry" />
        </mxCell>
        <mxCell id="0iJL2fDYfF9RaZBV5AV_-12" style="edgeStyle=orthogonalEdgeStyle;rounded=0;orthogonalLoop=1;jettySize=auto;html=1;entryX=0;entryY=0.5;entryDx=0;entryDy=0;" edge="1" parent="1" source="0iJL2fDYfF9RaZBV5AV_-9" target="0iJL2fDYfF9RaZBV5AV_-1">
          <mxGeometry relative="1" as="geometry" />
        </mxCell>
        <mxCell id="0iJL2fDYfF9RaZBV5AV_-27" style="edgeStyle=orthogonalEdgeStyle;rounded=0;orthogonalLoop=1;jettySize=auto;html=1;entryX=0;entryY=0.5;entryDx=0;entryDy=0;" edge="1" parent="1" source="0iJL2fDYfF9RaZBV5AV_-17" target="0iJL2fDYfF9RaZBV5AV_-26">
          <mxGeometry relative="1" as="geometry" />
        </mxCell>
        <mxCell id="0iJL2fDYfF9RaZBV5AV_-29" value="y" style="edgeLabel;html=1;align=center;verticalAlign=middle;resizable=0;points=[];" vertex="1" connectable="0" parent="0iJL2fDYfF9RaZBV5AV_-27">
          <mxGeometry x="0.0459" relative="1" as="geometry">
            <mxPoint x="11" y="-9" as="offset" />
          </mxGeometry>
        </mxCell>
        <mxCell id="0iJL2fDYfF9RaZBV5AV_-17" value="" style="rounded=0;whiteSpace=wrap;html=1;strokeColor=none;fillColor=#000000;" vertex="1" parent="1">
          <mxGeometry x="404" y="335.5" width="10" height="60" as="geometry" />
        </mxCell>
        <mxCell id="0iJL2fDYfF9RaZBV5AV_-24" style="edgeStyle=orthogonalEdgeStyle;rounded=0;orthogonalLoop=1;jettySize=auto;html=1;entryX=0;entryY=0.25;entryDx=0;entryDy=0;" edge="1" parent="1" source="0iJL2fDYfF9RaZBV5AV_-21" target="0iJL2fDYfF9RaZBV5AV_-17">
          <mxGeometry relative="1" as="geometry" />
        </mxCell>
        <mxCell id="0iJL2fDYfF9RaZBV5AV_-25" value="y" style="edgeLabel;html=1;align=center;verticalAlign=middle;resizable=0;points=[];" vertex="1" connectable="0" parent="0iJL2fDYfF9RaZBV5AV_-24">
          <mxGeometry x="0.7259" y="1" relative="1" as="geometry">
            <mxPoint x="5" y="-9" as="offset" />
          </mxGeometry>
        </mxCell>
        <mxCell id="0iJL2fDYfF9RaZBV5AV_-33" style="edgeStyle=orthogonalEdgeStyle;rounded=0;orthogonalLoop=1;jettySize=auto;html=1;entryX=0;entryY=0.5;entryDx=0;entryDy=0;" edge="1" parent="1" source="0iJL2fDYfF9RaZBV5AV_-26" target="0iJL2fDYfF9RaZBV5AV_-31">
          <mxGeometry relative="1" as="geometry" />
        </mxCell>
        <mxCell id="0iJL2fDYfF9RaZBV5AV_-36" style="edgeStyle=orthogonalEdgeStyle;rounded=0;orthogonalLoop=1;jettySize=auto;html=1;entryX=0;entryY=0.5;entryDx=0;entryDy=0;" edge="1" parent="1" source="0iJL2fDYfF9RaZBV5AV_-31" target="0iJL2fDYfF9RaZBV5AV_-35">
          <mxGeometry relative="1" as="geometry" />
        </mxCell>
        <mxCell id="0iJL2fDYfF9RaZBV5AV_-31" value="" style="rounded=0;whiteSpace=wrap;html=1;strokeColor=none;fillColor=#000000;" vertex="1" parent="1">
          <mxGeometry x="585" y="335.5" width="10" height="60" as="geometry" />
        </mxCell>
        <mxCell id="0iJL2fDYfF9RaZBV5AV_-34" value="N(6, 1.33&lt;sup&gt;2&lt;/sup&gt;)" style="text;html=1;align=center;verticalAlign=middle;resizable=0;points=[];autosize=1;strokeColor=none;fillColor=none;" vertex="1" parent="1">
          <mxGeometry x="550" y="388" width="80" height="30" as="geometry" />
        </mxCell>
        <mxCell id="0iJL2fDYfF9RaZBV5AV_-39" style="edgeStyle=orthogonalEdgeStyle;rounded=0;orthogonalLoop=1;jettySize=auto;html=1;entryX=0;entryY=0.5;entryDx=0;entryDy=0;" edge="1" parent="1" source="0iJL2fDYfF9RaZBV5AV_-35" target="0iJL2fDYfF9RaZBV5AV_-38">
          <mxGeometry relative="1" as="geometry" />
        </mxCell>
        <mxCell id="0iJL2fDYfF9RaZBV5AV_-44" value="j" style="edgeLabel;html=1;align=center;verticalAlign=middle;resizable=0;points=[];" vertex="1" connectable="0" parent="0iJL2fDYfF9RaZBV5AV_-39">
          <mxGeometry x="0.5731" y="2" relative="1" as="geometry">
            <mxPoint y="10" as="offset" />
          </mxGeometry>
        </mxCell>
        <mxCell id="0iJL2fDYfF9RaZBV5AV_-46" style="edgeStyle=orthogonalEdgeStyle;rounded=0;orthogonalLoop=1;jettySize=auto;html=1;entryX=0;entryY=0.5;entryDx=0;entryDy=0;" edge="1" parent="1" source="0iJL2fDYfF9RaZBV5AV_-38" target="0iJL2fDYfF9RaZBV5AV_-45">
          <mxGeometry relative="1" as="geometry" />
        </mxCell>
        <mxCell id="0iJL2fDYfF9RaZBV5AV_-47" value="j" style="edgeLabel;html=1;align=center;verticalAlign=middle;resizable=0;points=[];" vertex="1" connectable="0" parent="0iJL2fDYfF9RaZBV5AV_-46">
          <mxGeometry x="0.0048" relative="1" as="geometry">
            <mxPoint x="10" y="-9" as="offset" />
          </mxGeometry>
        </mxCell>
        <mxCell id="0iJL2fDYfF9RaZBV5AV_-38" value="" style="rounded=0;whiteSpace=wrap;html=1;strokeColor=none;fillColor=#000000;" vertex="1" parent="1">
          <mxGeometry x="790" y="335.5" width="10" height="60" as="geometry" />
        </mxCell>
        <mxCell id="0iJL2fDYfF9RaZBV5AV_-42" style="edgeStyle=orthogonalEdgeStyle;rounded=0;orthogonalLoop=1;jettySize=auto;html=1;entryX=0;entryY=0.25;entryDx=0;entryDy=0;" edge="1" parent="1" source="0iJL2fDYfF9RaZBV5AV_-40" target="0iJL2fDYfF9RaZBV5AV_-38">
          <mxGeometry relative="1" as="geometry" />
        </mxCell>
        <mxCell id="0iJL2fDYfF9RaZBV5AV_-43" value="j" style="edgeLabel;html=1;align=center;verticalAlign=middle;resizable=0;points=[];" vertex="1" connectable="0" parent="0iJL2fDYfF9RaZBV5AV_-42">
          <mxGeometry x="0.7255" y="1" relative="1" as="geometry">
            <mxPoint x="4" y="-9" as="offset" />
          </mxGeometry>
        </mxCell>
        <mxCell id="0iJL2fDYfF9RaZBV5AV_-52" style="edgeStyle=orthogonalEdgeStyle;rounded=0;orthogonalLoop=1;jettySize=auto;html=1;entryX=0;entryY=0.5;entryDx=0;entryDy=0;" edge="1" parent="1" source="0iJL2fDYfF9RaZBV5AV_-45" target="0iJL2fDYfF9RaZBV5AV_-50">
          <mxGeometry relative="1" as="geometry" />
        </mxCell>
        <mxCell id="0iJL2fDYfF9RaZBV5AV_-53" style="edgeStyle=orthogonalEdgeStyle;rounded=0;orthogonalLoop=1;jettySize=auto;html=1;entryX=0;entryY=0.5;entryDx=0;entryDy=0;" edge="1" parent="1" source="0iJL2fDYfF9RaZBV5AV_-50" target="0iJL2fDYfF9RaZBV5AV_-49">
          <mxGeometry relative="1" as="geometry" />
        </mxCell>
        <mxCell id="0iJL2fDYfF9RaZBV5AV_-50" value="" style="rounded=0;whiteSpace=wrap;html=1;strokeColor=none;fillColor=#000000;" vertex="1" parent="1">
          <mxGeometry x="960" y="335.5" width="10" height="60" as="geometry" />
        </mxCell>
        <mxCell id="0iJL2fDYfF9RaZBV5AV_-54" value="N(30, 3.33&lt;sup&gt;2&lt;/sup&gt;)" style="text;html=1;align=center;verticalAlign=middle;resizable=0;points=[];autosize=1;strokeColor=none;fillColor=none;" vertex="1" parent="1">
          <mxGeometry x="920" y="388" width="90" height="30" as="geometry" />
        </mxCell>
        <mxCell id="0iJL2fDYfF9RaZBV5AV_-55" value="" style="group" vertex="1" connectable="0" parent="1">
          <mxGeometry x="622.5" y="320" width="120" height="68" as="geometry" />
        </mxCell>
        <mxCell id="0iJL2fDYfF9RaZBV5AV_-35" value="" style="ellipse;whiteSpace=wrap;html=1;aspect=fixed;" vertex="1" parent="0iJL2fDYfF9RaZBV5AV_-55">
          <mxGeometry x="37.5" y="23" width="45" height="45" as="geometry" />
        </mxCell>
        <mxCell id="0iJL2fDYfF9RaZBV5AV_-37" value="vyrostlÃ¡ sazenice" style="text;html=1;align=center;verticalAlign=middle;resizable=0;points=[];autosize=1;strokeColor=none;fillColor=none;" vertex="1" parent="0iJL2fDYfF9RaZBV5AV_-55">
          <mxGeometry width="120" height="30" as="geometry" />
        </mxCell>
        <mxCell id="0iJL2fDYfF9RaZBV5AV_-56" value="" style="group" vertex="1" connectable="0" parent="1">
          <mxGeometry x="647.5" y="237" width="70" height="68" as="geometry" />
        </mxCell>
        <mxCell id="0iJL2fDYfF9RaZBV5AV_-40" value="i" style="ellipse;whiteSpace=wrap;html=1;aspect=fixed;" vertex="1" parent="0iJL2fDYfF9RaZBV5AV_-56">
          <mxGeometry x="12.5" y="23" width="45" height="45" as="geometry" />
        </mxCell>
        <mxCell id="0iJL2fDYfF9RaZBV5AV_-41" value="kvÄtinÃ¡Äe" style="text;html=1;align=center;verticalAlign=middle;resizable=0;points=[];autosize=1;strokeColor=none;fillColor=none;" vertex="1" parent="0iJL2fDYfF9RaZBV5AV_-56">
          <mxGeometry width="70" height="30" as="geometry" />
        </mxCell>
        <mxCell id="0iJL2fDYfF9RaZBV5AV_-57" value="" style="group" vertex="1" connectable="0" parent="1">
          <mxGeometry x="851.5" y="319" width="60" height="69" as="geometry" />
        </mxCell>
        <mxCell id="0iJL2fDYfF9RaZBV5AV_-45" value="" style="ellipse;whiteSpace=wrap;html=1;aspect=fixed;" vertex="1" parent="0iJL2fDYfF9RaZBV5AV_-57">
          <mxGeometry x="8.5" y="24" width="45" height="45" as="geometry" />
        </mxCell>
        <mxCell id="0iJL2fDYfF9RaZBV5AV_-48" value="rostlina" style="text;html=1;align=center;verticalAlign=middle;resizable=0;points=[];autosize=1;strokeColor=none;fillColor=none;" vertex="1" parent="0iJL2fDYfF9RaZBV5AV_-57">
          <mxGeometry width="60" height="30" as="geometry" />
        </mxCell>
        <mxCell id="0iJL2fDYfF9RaZBV5AV_-58" value="" style="group" vertex="1" connectable="0" parent="1">
          <mxGeometry x="1030" y="320" width="80" height="68" as="geometry" />
        </mxCell>
        <mxCell id="0iJL2fDYfF9RaZBV5AV_-49" value="" style="ellipse;whiteSpace=wrap;html=1;aspect=fixed;" vertex="1" parent="0iJL2fDYfF9RaZBV5AV_-58">
          <mxGeometry x="17.5" y="23" width="45" height="45" as="geometry" />
        </mxCell>
        <mxCell id="0iJL2fDYfF9RaZBV5AV_-51" value="zralÃ½ salÃ¡t" style="text;html=1;align=center;verticalAlign=middle;resizable=0;points=[];autosize=1;strokeColor=none;fillColor=none;" vertex="1" parent="0iJL2fDYfF9RaZBV5AV_-58">
          <mxGeometry width="80" height="30" as="geometry" />
        </mxCell>
        <mxCell id="0iJL2fDYfF9RaZBV5AV_-59" value="" style="group" vertex="1" connectable="0" parent="1">
          <mxGeometry x="457.5" y="320" width="70" height="68" as="geometry" />
        </mxCell>
        <mxCell id="0iJL2fDYfF9RaZBV5AV_-26" value="" style="ellipse;whiteSpace=wrap;html=1;aspect=fixed;" vertex="1" parent="0iJL2fDYfF9RaZBV5AV_-59">
          <mxGeometry x="12.5" y="23" width="45" height="45" as="geometry" />
        </mxCell>
        <mxCell id="0iJL2fDYfF9RaZBV5AV_-28" value="sazenice" style="text;html=1;align=center;verticalAlign=middle;resizable=0;points=[];autosize=1;strokeColor=none;fillColor=none;" vertex="1" parent="0iJL2fDYfF9RaZBV5AV_-59">
          <mxGeometry width="70" height="30" as="geometry" />
        </mxCell>
        <mxCell id="0iJL2fDYfF9RaZBV5AV_-60" value="" style="group" vertex="1" connectable="0" parent="1">
          <mxGeometry x="225" y="320" width="130" height="68" as="geometry" />
        </mxCell>
        <mxCell id="9cqDlCr2pAgiw4tXtKMy-4" value="" style="ellipse;whiteSpace=wrap;html=1;aspect=fixed;" parent="0iJL2fDYfF9RaZBV5AV_-60" vertex="1">
          <mxGeometry x="42.5" y="23" width="45" height="45" as="geometry" />
        </mxCell>
        <mxCell id="0iJL2fDYfF9RaZBV5AV_-15" value="pÅipraveno k vÃ½satbÄ" style="text;html=1;align=center;verticalAlign=middle;resizable=0;points=[];autosize=1;strokeColor=none;fillColor=none;" vertex="1" parent="0iJL2fDYfF9RaZBV5AV_-60">
          <mxGeometry width="130" height="30" as="geometry" />
        </mxCell>
        <mxCell id="0iJL2fDYfF9RaZBV5AV_-61" value="" style="group" vertex="1" connectable="0" parent="1">
          <mxGeometry x="240" y="230" width="100" height="75" as="geometry" />
        </mxCell>
        <mxCell id="0iJL2fDYfF9RaZBV5AV_-21" value="x" style="ellipse;whiteSpace=wrap;html=1;aspect=fixed;" vertex="1" parent="0iJL2fDYfF9RaZBV5AV_-61">
          <mxGeometry x="27.5" y="30" width="45" height="45" as="geometry" />
        </mxCell>
        <mxCell id="0iJL2fDYfF9RaZBV5AV_-22" value="sadbovacÃ­ plÃ¡t" style="text;html=1;align=center;verticalAlign=middle;resizable=0;points=[];autosize=1;strokeColor=none;fillColor=none;" vertex="1" parent="0iJL2fDYfF9RaZBV5AV_-61">
          <mxGeometry width="100" height="30" as="geometry" />
        </mxCell>
        <mxCell id="0iJL2fDYfF9RaZBV5AV_-62" value="" style="group" vertex="1" connectable="0" parent="1">
          <mxGeometry x="80" y="320" width="70" height="68" as="geometry" />
        </mxCell>
        <mxCell id="0iJL2fDYfF9RaZBV5AV_-9" value="s" style="ellipse;whiteSpace=wrap;html=1;aspect=fixed;" vertex="1" parent="0iJL2fDYfF9RaZBV5AV_-62">
          <mxGeometry x="12.5" y="23" width="45" height="45" as="geometry" />
        </mxCell>
        <mxCell id="0iJL2fDYfF9RaZBV5AV_-13" value="semÃ­nka" style="text;html=1;align=center;verticalAlign=middle;resizable=0;points=[];autosize=1;strokeColor=none;fillColor=none;" vertex="1" parent="0iJL2fDYfF9RaZBV5AV_-62">
          <mxGeometry width="70" height="30" as="geometry" />
        </mxCell>
        <mxCell id="0iJL2fDYfF9RaZBV5AV_-63" value="" style="group" vertex="1" connectable="0" parent="1">
          <mxGeometry x="122.5" y="17" width="80" height="68" as="geometry" />
        </mxCell>
        <mxCell id="0iJL2fDYfF9RaZBV5AV_-64" value="" style="ellipse;whiteSpace=wrap;html=1;aspect=fixed;" vertex="1" parent="0iJL2fDYfF9RaZBV5AV_-63">
          <mxGeometry x="17.5" y="23" width="45" height="45" as="geometry" />
        </mxCell>
        <mxCell id="0iJL2fDYfF9RaZBV5AV_-65" value="mÃ­sto" style="text;html=1;align=center;verticalAlign=middle;resizable=0;points=[];autosize=1;strokeColor=none;fillColor=none;" vertex="1" parent="0iJL2fDYfF9RaZBV5AV_-63">
          <mxGeometry x="15" width="50" height="30" as="geometry" />
        </mxCell>
        <mxCell id="0iJL2fDYfF9RaZBV5AV_-69" value="" style="group" vertex="1" connectable="0" parent="1">
          <mxGeometry x="202.5" y="10" width="50" height="82" as="geometry" />
        </mxCell>
        <mxCell id="0iJL2fDYfF9RaZBV5AV_-67" value="" style="rounded=0;whiteSpace=wrap;html=1;strokeColor=none;fillColor=#000000;" vertex="1" parent="0iJL2fDYfF9RaZBV5AV_-69">
          <mxGeometry x="20" y="22" width="10" height="60" as="geometry" />
        </mxCell>
        <mxCell id="0iJL2fDYfF9RaZBV5AV_-68" value="&lt;font style=&quot;font-size: 8px;&quot;&gt;pÅechod&lt;/font&gt;" style="text;html=1;align=center;verticalAlign=middle;resizable=0;points=[];autosize=1;strokeColor=none;fillColor=none;" vertex="1" parent="0iJL2fDYfF9RaZBV5AV_-69">
          <mxGeometry width="50" height="30" as="geometry" />
        </mxCell>
        <mxCell id="0iJL2fDYfF9RaZBV5AV_-71" value="" style="group" vertex="1" connectable="0" parent="1">
          <mxGeometry x="10" y="17" width="50" height="68" as="geometry" />
        </mxCell>
        <mxCell id="0iJL2fDYfF9RaZBV5AV_-3" value="&lt;font style=&quot;font-size: 30px;&quot;&gt;â¢&lt;/font&gt;" style="ellipse;whiteSpace=wrap;html=1;aspect=fixed;" vertex="1" parent="0iJL2fDYfF9RaZBV5AV_-71">
          <mxGeometry x="2.5" y="23" width="45" height="45" as="geometry" />
        </mxCell>
        <mxCell id="0iJL2fDYfF9RaZBV5AV_-70" value="mÃ­sto" style="text;html=1;align=center;verticalAlign=middle;resizable=0;points=[];autosize=1;strokeColor=none;fillColor=none;" vertex="1" parent="0iJL2fDYfF9RaZBV5AV_-71">
          <mxGeometry width="50" height="30" as="geometry" />
        </mxCell>
        <mxCell id="0iJL2fDYfF9RaZBV5AV_-83" style="edgeStyle=orthogonalEdgeStyle;rounded=0;orthogonalLoop=1;jettySize=auto;html=1;entryX=0;entryY=0.5;entryDx=0;entryDy=0;" edge="1" parent="1" source="0iJL2fDYfF9RaZBV5AV_-72" target="0iJL2fDYfF9RaZBV5AV_-81">
          <mxGeometry relative="1" as="geometry" />
        </mxCell>
        <mxCell id="0iJL2fDYfF9RaZBV5AV_-72" value="" style="rounded=0;whiteSpace=wrap;html=1;strokeColor=none;fillColor=#000000;" vertex="1" parent="1">
          <mxGeometry x="1160" y="290" width="10" height="60" as="geometry" />
        </mxCell>
        <mxCell id="0iJL2fDYfF9RaZBV5AV_-87" style="edgeStyle=orthogonalEdgeStyle;rounded=0;orthogonalLoop=1;jettySize=auto;html=1;entryX=0;entryY=0.5;entryDx=0;entryDy=0;" edge="1" parent="1" source="0iJL2fDYfF9RaZBV5AV_-73" target="0iJL2fDYfF9RaZBV5AV_-85">
          <mxGeometry relative="1" as="geometry" />
        </mxCell>
        <mxCell id="0iJL2fDYfF9RaZBV5AV_-73" value="" style="rounded=0;whiteSpace=wrap;html=1;strokeColor=none;fillColor=#000000;" vertex="1" parent="1">
          <mxGeometry x="1160" y="373" width="10" height="60" as="geometry" />
        </mxCell>
        <mxCell id="0iJL2fDYfF9RaZBV5AV_-74" style="edgeStyle=orthogonalEdgeStyle;rounded=0;orthogonalLoop=1;jettySize=auto;html=1;entryX=0;entryY=0.5;entryDx=0;entryDy=0;" edge="1" parent="1" source="0iJL2fDYfF9RaZBV5AV_-49" target="0iJL2fDYfF9RaZBV5AV_-72">
          <mxGeometry relative="1" as="geometry">
            <Array as="points">
              <mxPoint x="1126" y="360" />
              <mxPoint x="1126" y="320" />
            </Array>
          </mxGeometry>
        </mxCell>
        <mxCell id="0iJL2fDYfF9RaZBV5AV_-75" style="edgeStyle=orthogonalEdgeStyle;rounded=0;orthogonalLoop=1;jettySize=auto;html=1;entryX=0;entryY=0.5;entryDx=0;entryDy=0;" edge="1" parent="1" source="0iJL2fDYfF9RaZBV5AV_-49" target="0iJL2fDYfF9RaZBV5AV_-73">
          <mxGeometry relative="1" as="geometry">
            <Array as="points">
              <mxPoint x="1126" y="370" />
              <mxPoint x="1126" y="403" />
            </Array>
          </mxGeometry>
        </mxCell>
        <mxCell id="0iJL2fDYfF9RaZBV5AV_-76" value="3%" style="text;html=1;align=center;verticalAlign=middle;resizable=0;points=[];autosize=1;strokeColor=none;fillColor=none;" vertex="1" parent="1">
          <mxGeometry x="1145" y="268" width="40" height="30" as="geometry" />
        </mxCell>
        <mxCell id="0iJL2fDYfF9RaZBV5AV_-77" value="97%" style="text;html=1;align=center;verticalAlign=middle;resizable=0;points=[];autosize=1;strokeColor=none;fillColor=none;" vertex="1" parent="1">
          <mxGeometry x="1140" y="430" width="50" height="30" as="geometry" />
        </mxCell>
        <mxCell id="0iJL2fDYfF9RaZBV5AV_-80" value="" style="group" vertex="1" connectable="0" parent="1">
          <mxGeometry x="1185" y="274" width="155" height="68" as="geometry" />
        </mxCell>
        <mxCell id="0iJL2fDYfF9RaZBV5AV_-81" value="" style="ellipse;whiteSpace=wrap;html=1;aspect=fixed;" vertex="1" parent="0iJL2fDYfF9RaZBV5AV_-80">
          <mxGeometry x="54.99695652173913" y="23" width="45" height="45" as="geometry" />
        </mxCell>
        <mxCell id="0iJL2fDYfF9RaZBV5AV_-82" value="neÅ¾Ã¡doucÃ­ stav rostliny" style="text;html=1;align=center;verticalAlign=middle;resizable=0;points=[];autosize=1;strokeColor=none;fillColor=none;" vertex="1" parent="0iJL2fDYfF9RaZBV5AV_-80">
          <mxGeometry x="2.4960869565217436" width="150" height="30" as="geometry" />
        </mxCell>
        <mxCell id="0iJL2fDYfF9RaZBV5AV_-84" value="" style="group" vertex="1" connectable="0" parent="1">
          <mxGeometry x="1221" y="357" width="90" height="68" as="geometry" />
        </mxCell>
        <mxCell id="0iJL2fDYfF9RaZBV5AV_-85" value="" style="ellipse;whiteSpace=wrap;html=1;aspect=fixed;" vertex="1" parent="0iJL2fDYfF9RaZBV5AV_-84">
          <mxGeometry x="17.5" y="23" width="45" height="45" as="geometry" />
        </mxCell>
        <mxCell id="0iJL2fDYfF9RaZBV5AV_-86" value="prodejnÃ½ salÃ¡t" style="text;html=1;align=center;verticalAlign=middle;resizable=0;points=[];autosize=1;strokeColor=none;fillColor=none;" vertex="1" parent="0iJL2fDYfF9RaZBV5AV_-84">
          <mxGeometry x="-10" width="100" height="30" as="geometry" />
        </mxCell>
        <mxCell id="0iJL2fDYfF9RaZBV5AV_-95" style="edgeStyle=orthogonalEdgeStyle;rounded=0;orthogonalLoop=1;jettySize=auto;html=1;entryX=0;entryY=0.5;entryDx=0;entryDy=0;" edge="1" parent="1" source="0iJL2fDYfF9RaZBV5AV_-89" target="0iJL2fDYfF9RaZBV5AV_-93">
          <mxGeometry relative="1" as="geometry" />
        </mxCell>
        <mxCell id="0iJL2fDYfF9RaZBV5AV_-96" value="30" style="edgeLabel;html=1;align=center;verticalAlign=middle;resizable=0;points=[];" vertex="1" connectable="0" parent="0iJL2fDYfF9RaZBV5AV_-95">
          <mxGeometry x="-0.0935" y="1" relative="1" as="geometry">
            <mxPoint x="19" y="-11" as="offset" />
          </mxGeometry>
        </mxCell>
        <mxCell id="0iJL2fDYfF9RaZBV5AV_-89" value="" style="rounded=0;whiteSpace=wrap;html=1;strokeColor=none;fillColor=#000000;" vertex="1" parent="1">
          <mxGeometry x="1350" y="373" width="10" height="60" as="geometry" />
        </mxCell>
        <mxCell id="0iJL2fDYfF9RaZBV5AV_-90" style="edgeStyle=orthogonalEdgeStyle;rounded=0;orthogonalLoop=1;jettySize=auto;html=1;entryX=0;entryY=0.5;entryDx=0;entryDy=0;" edge="1" parent="1" source="0iJL2fDYfF9RaZBV5AV_-85" target="0iJL2fDYfF9RaZBV5AV_-89">
          <mxGeometry relative="1" as="geometry" />
        </mxCell>
        <mxCell id="0iJL2fDYfF9RaZBV5AV_-92" value="" style="group" vertex="1" connectable="0" parent="1">
          <mxGeometry x="1410" y="357" width="90" height="68" as="geometry" />
        </mxCell>
        <mxCell id="0iJL2fDYfF9RaZBV5AV_-93" value="" style="ellipse;whiteSpace=wrap;html=1;aspect=fixed;" vertex="1" parent="0iJL2fDYfF9RaZBV5AV_-92">
          <mxGeometry x="17.5" y="23" width="45" height="45" as="geometry" />
        </mxCell>
        <mxCell id="0iJL2fDYfF9RaZBV5AV_-94" value="vÃ½nos" style="text;html=1;align=center;verticalAlign=middle;resizable=0;points=[];autosize=1;strokeColor=none;fillColor=none;" vertex="1" parent="0iJL2fDYfF9RaZBV5AV_-92">
          <mxGeometry x="15" width="50" height="30" as="geometry" />
        </mxCell>
      </root>
    </mxGraphModel>
  </diagram>
</mxfile>
